<?xml version="1.0" standalone="no"?><!DOCTYPE svg PUBLIC "-//W3C//DTD SVG 1.1//EN" "http://www.w3.org/Graphics/SVG/1.1/DTD/svg11.dtd"><svg t="1611060694952" class="icon" viewBox="0 0 1024 1024" version="1.1" xmlns="http://www.w3.org/2000/svg" p-id="3346" xmlns:xlink="http://www.w3.org/1999/xlink" width="200" height="200"><defs><style type="text/css"></style></defs><path d="M515.253602 953.842127c-197.716061 0-378.821815-132.747373-431.274444-332.763826C21.662881 383.270127 164.416142 139.100058 402.198733 76.783781c115.203812-30.222325 235.251955-13.707187 338.02055 46.372144 102.797247 60.104913 176.044482 156.630317 206.233038 271.807522 5.851265 22.331611-7.509021 45.174875-29.834492 51.024094-22.271236 5.89015-45.167712-7.496741-51.030234-29.828352-24.530696-93.579305-84.036975-172.010609-167.555134-220.838687-83.505879-48.840358-181.02389-62.22111-274.636964-37.684274-193.20021 50.636261-309.192991 249.02668-258.56287 442.246333 50.662867 193.166441 249.012354 309.166385 442.199261 258.475889 136.154983-35.650965 240.121869-148.250462 264.896112-286.86752 4.054339-22.727631 25.916253-37.888935 48.486294-33.788547 22.734794 4.061502 37.862329 25.767873 33.793664 48.495504-30.473035 170.573887-158.439522 309.144896-325.994656 353.019149C590.472747 949.114452 552.55823 953.842127 515.253602 953.842127z" p-id="3347"></path><path d="M721.609437 549.811164 721.609437 549.811164l-322.43048-0.014326c-23.087834 0-41.793872-18.712177-41.793872-41.793872 0-23.079648 18.720364-41.792848 41.793872-41.792848l0 0 322.43048 0.013303c23.087834 0 41.793872 18.7132 41.793872 41.793872S744.682945 549.811164 721.609437 549.811164z" p-id="3348"></path><path d="M336.719416 549.838793c-10.69355 0-21.3871-4.080945-29.54899-12.244882-16.325827-16.318664-16.325827-42.779316 0-59.09798l191.567014-191.567014c16.325827-16.325827 42.773176-16.325827 59.099003 0 16.324804 16.318664 16.324804 42.779316 0 59.09798L366.268406 537.593911C358.106516 545.756825 347.411943 549.838793 336.719416 549.838793z" p-id="3349"></path><path d="M528.28643 741.323942c-10.692526 0-21.385053-4.080945-29.54899-12.236696L307.1561 537.532513c-16.324804-16.318664-16.324804-42.786479 0-59.105143 16.298198-16.325827 42.773176-16.318664 59.099003-0.007163l191.58134 191.553711c16.324804 16.318664 16.324804 42.787502 0 59.106166C549.686832 737.241974 538.97998 741.323942 528.28643 741.323942z" p-id="3350"></path></svg>