<?xml version="1.0" standalone="no"?><!DOCTYPE svg PUBLIC "-//W3C//DTD SVG 1.1//EN" "http://www.w3.org/Graphics/SVG/1.1/DTD/svg11.dtd"><svg t="1611046623821" class="icon" viewBox="0 0 1024 1024" version="1.1" xmlns="http://www.w3.org/2000/svg" p-id="4386" xmlns:xlink="http://www.w3.org/1999/xlink" width="200" height="200"><defs><style type="text/css"></style></defs><path d="M78.400225 921.399514h131.705853a458.910888 458.910888 0 0 1 254.739716 76.963915l31.977965 21.137976a27.09997 27.09997 0 0 0 29.809966 0l31.977965-21.137976a458.910888 458.910888 0 0 1 254.739716-76.963915H945.599258a54.19994 54.19994 0 0 0 54.19994-54.199939V54.200482a54.19994 54.19994 0 0 0-54.19994-54.19994h-93.765895a585.901347 585.901347 0 0 0-325.199638 98.64389 27.09997 27.09997 0 0 1-29.809966 0 585.847147 585.847147 0 0 0-325.199638-98.64389H78.400225a54.19994 54.19994 0 0 0-54.199939 54.19994v812.999093a54.19994 54.19994 0 0 0 54.199939 54.199939z" fill="#DCDAC8" p-id="4387"></path><path d="M945.599258 0.000542h-93.765895a585.955547 585.955547 0 0 0-325.199638 98.101891 27.09997 27.09997 0 0 1-15.175983 4.335995v921.398972a27.09997 27.09997 0 0 0 15.175983-4.335995l31.977965-21.137976a459.019288 459.019288 0 0 1 254.739716-76.963915H945.599258a54.19994 54.19994 0 0 0 54.19994-54.199939V54.200482a54.19994 54.19994 0 0 0-54.19994-54.19994z" fill="#F2EFDC" p-id="4388"></path></svg>