<?xml version="1.0" standalone="no"?><!DOCTYPE svg PUBLIC "-//W3C//DTD SVG 1.1//EN" "http://www.w3.org/Graphics/SVG/1.1/DTD/svg11.dtd"><svg t="1611045247568" class="icon" viewBox="0 0 1024 1024" version="1.1" xmlns="http://www.w3.org/2000/svg" p-id="3529" xmlns:xlink="http://www.w3.org/1999/xlink" width="200" height="200"><defs><style type="text/css"></style></defs><path d="M896 0H128a128 128 0 0 0-128 128v768a128 128 0 0 0 128 128h768a128 128 0 0 0 128-128V128a128 128 0 0 0-128-128z" fill="#F2EFDC" p-id="3530"></path><path d="M448 320a42.666667 42.666667 0 0 1-42.666667 42.666667h-85.333333v85.333333a42.666667 42.666667 0 0 1-85.333333 0v-85.333333h-85.333334a42.666667 42.666667 0 0 1 0-85.333334h85.333334v-85.333333a42.666667 42.666667 0 0 1 85.333333 0v85.333333h85.333333a42.666667 42.666667 0 0 1 42.666667 42.666667z m128 42.666667h256a42.666667 42.666667 0 0 0 0-85.333334h-256a42.666667 42.666667 0 0 0 0 85.333334z m256 341.333333h-256a42.666667 42.666667 0 0 0 0 85.333333h256a42.666667 42.666667 0 0 0 0-85.333333zM403.2 631.04a42.666667 42.666667 0 0 0-60.16 0L282.88 691.2l-60.16-60.16a42.666667 42.666667 0 0 0-60.16 60.16l60.16 60.16-60.16 60.16a42.666667 42.666667 0 1 0 60.16 60.16l60.16-60.16 60.16 60.16a42.666667 42.666667 0 0 0 60.16-60.16l-60.16-60.16 60.16-60.16a42.666667 42.666667 0 0 0 0-60.16z m300.8-55.04a42.666667 42.666667 0 1 0 42.666667 42.666667 42.666667 42.666667 0 0 0-42.666667-42.666667z m0 256a42.666667 42.666667 0 1 0 42.666667 42.666667 42.666667 42.666667 0 0 0-42.666667-42.666667z" fill="#CCC9B8" p-id="3531"></path><path d="M469.333333 298.666667a42.666667 42.666667 0 0 1-42.666666 42.666666H341.333333v85.333334a42.666667 42.666667 0 0 1-85.333333 0V341.333333H170.666667a42.666667 42.666667 0 0 1 0-85.333333h85.333333V170.666667a42.666667 42.666667 0 0 1 85.333333 0v85.333333h85.333334a42.666667 42.666667 0 0 1 42.666666 42.666667z m128 42.666666h256a42.666667 42.666667 0 0 0 0-85.333333h-256a42.666667 42.666667 0 0 0 0 85.333333z m256 341.333334h-256a42.666667 42.666667 0 0 0 0 85.333333h256a42.666667 42.666667 0 0 0 0-85.333333zM424.533333 609.706667a42.666667 42.666667 0 0 0-60.16 0L304.213333 669.866667l-60.16-60.16a42.666667 42.666667 0 0 0-60.16 60.16l60.16 60.16-60.16 60.16a42.666667 42.666667 0 1 0 60.16 60.16l60.16-60.16 60.16 60.16a42.666667 42.666667 0 0 0 60.16-60.16l-60.16-60.16 60.16-60.16a42.666667 42.666667 0 0 0 0-60.16zM725.333333 554.666667a42.666667 42.666667 0 1 0 42.666667 42.666666 42.666667 42.666667 0 0 0-42.666667-42.666666z m0 256a42.666667 42.666667 0 1 0 42.666667 42.666666 42.666667 42.666667 0 0 0-42.666667-42.666666z" fill="#E85A2E" p-id="3532"></path></svg>