<?xml version="1.0" standalone="no"?><!DOCTYPE svg PUBLIC "-//W3C//DTD SVG 1.1//EN" "http://www.w3.org/Graphics/SVG/1.1/DTD/svg11.dtd"><svg t="1611147637308" class="icon" viewBox="0 0 1024 1024" version="1.1" xmlns="http://www.w3.org/2000/svg" p-id="4243" xmlns:xlink="http://www.w3.org/1999/xlink" width="200" height="200"><defs><style type="text/css"></style></defs><path d="M86.933879 985.055778a48.110172 48.110172 0 0 1-34.158222-82.268395l203.98713-203.98713a48.110172 48.110172 0 1 1 67.835343 67.835343l-203.987131 203.98713a48.110172 48.110172 0 0 1-33.67712 14.433052z m782.271401-490.242656l-340.138918-340.138918-374.29714 374.29714 340.138918 340.138919z" fill="#9B1967" p-id="4244"></path><path d="M529.066362 154.674204l340.138918 340.138918-91.890429 91.890429-340.138918-340.138918z m-272.303575 545.569354l-91.890429 91.890429 67.835343 67.835343 91.890429-91.890429a48.110172 48.110172 0 1 0-67.835343-67.835343z" fill="#7F165A" p-id="4245"></path><path d="M818.208498 579.968127l-374.297141-374.29714a120.275431 120.275431 0 0 1 0-170.31001 120.275431 120.275431 0 0 1 170.31001 0l374.297141 374.29714a120.275431 120.275431 0 0 1 0 170.31001 120.275431 120.275431 0 0 1-170.31001 0z m-238.145353 408.455363a120.275431 120.275431 0 0 0 0-170.31001l-374.297141-374.297141a120.275431 120.275431 0 0 0-170.31001 0 120.275431 120.275431 0 0 0 0 170.31001l374.297141 374.297141a120.275431 120.275431 0 0 0 170.31001 0.481102z" fill="#D1026C" p-id="4246"></path></svg>