<?xml version="1.0" standalone="no"?><!DOCTYPE svg PUBLIC "-//W3C//DTD SVG 1.1//EN" "http://www.w3.org/Graphics/SVG/1.1/DTD/svg11.dtd"><svg t="1611045800054" class="icon" viewBox="0 0 1365 1024" version="1.1" xmlns="http://www.w3.org/2000/svg" p-id="3813" xmlns:xlink="http://www.w3.org/1999/xlink" width="266.6015625" height="200"><defs><style type="text/css"></style></defs><path d="M0 0m163.84 0l873.813333 0q163.84 0 163.84 163.84l0 655.36q0 163.84-163.84 163.84l-873.813333 0q-163.84 0-163.84-163.84l0-655.36q0-163.84 163.84-163.84Z" fill="#F24922" p-id="3814"></path><path d="M1201.493333 678.843733v-320.034133a109.226667 109.226667 0 0 0-27.306666-3.822933h-273.066667a109.226667 109.226667 0 0 0-109.226667 109.226666v109.226667a109.226667 109.226667 0 0 0 109.226667 109.226667h273.066667a109.554347 109.554347 0 0 0 27.306666-3.822934z" fill="#C4321A" p-id="3815"></path><path d="M1201.493333 327.68h-273.066666a109.226667 109.226667 0 0 0-109.226667 109.226667v109.226666a109.226667 109.226667 0 0 0 109.226667 109.226667h273.066666a109.226667 109.226667 0 0 0 109.226667-109.226667v-109.226666a109.226667 109.226667 0 0 0-109.226667-109.226667z" fill="#EA7B28" p-id="3816"></path><path d="M1174.186667 518.826667m-54.613334 0a54.613333 54.613333 0 1 0 109.226667 0 54.613333 54.613333 0 1 0-109.226667 0Z" fill="#CC6A29" p-id="3817"></path><path d="M1201.493333 491.52m-54.613333 0a54.613333 54.613333 0 1 0 109.226667 0 54.613333 54.613333 0 1 0-109.226667 0Z" fill="#592D26" p-id="3818"></path></svg>