<?xml version="1.0" standalone="no"?><!DOCTYPE svg PUBLIC "-//W3C//DTD SVG 1.1//EN" "http://www.w3.org/Graphics/SVG/1.1/DTD/svg11.dtd"><svg t="1610970033778" class="icon" viewBox="0 0 1024 1024" version="1.1" xmlns="http://www.w3.org/2000/svg" p-id="1173" xmlns:xlink="http://www.w3.org/1999/xlink" width="200" height="200"><defs><style type="text/css"></style></defs><path d="M936.96 174.08v281.6c-31.104 0-56.32 25.216-56.32 56.32s25.216 56.32 56.32 56.32v281.6H87.04v-281.6c31.104 0 56.32-25.216 56.32-56.32s-25.216-56.32-56.32-56.32V174.08h849.92z m-112.64 112.64H199.68v99.34848l1.2032 1.08032c33.2288 30.32064 54.31296 73.72288 55.0912 122.0608L256 512c0 49.4592-21.248 93.952-55.1168 124.8512l-1.2032 1.0752V737.28h624.64v-99.34848l-1.2032-1.08032c-33.2288-30.32064-54.31296-73.72288-55.0912-122.0608L768 512c0-49.4592 21.248-93.952 55.1168-124.8512l1.2032-1.08544V286.72z" fill="#FB8B45" p-id="1174"></path><path d="M435.2 737.28v112.64H322.56v-112.64h112.64z m0-563.2v112.64H322.56V174.08h112.64z" fill="#FD5A1C" p-id="1175"></path><path d="M322.56 361.81504h112.64v112.64H322.56zM322.56 549.54496h112.64v112.64H322.56z" fill="#FB8B45" p-id="1176"></path></svg>