<?xml version="1.0" standalone="no"?><!DOCTYPE svg PUBLIC "-//W3C//DTD SVG 1.1//EN" "http://www.w3.org/Graphics/SVG/1.1/DTD/svg11.dtd"><svg t="1611045967329" class="icon" viewBox="0 0 1682 1024" version="1.1" xmlns="http://www.w3.org/2000/svg" p-id="3959" xmlns:xlink="http://www.w3.org/1999/xlink" width="328.515625" height="200"><defs><style type="text/css"></style></defs><path d="M1243.428571 0H219.428571a219.428571 219.428571 0 0 0-219.428571 219.428571v585.142858a219.428571 219.428571 0 0 0 219.428571 219.428571h1024a219.428571 219.428571 0 0 0 219.428572-219.428571V219.428571a219.428571 219.428571 0 0 0-219.428572-219.428571z" fill="#77EF37" p-id="3960"></path><path d="M1462.857143 219.428571l62.171428 62.171429a36.571429 36.571429 0 0 0 25.6 10.971429h58.514286a73.142857 73.142857 0 0 1 73.142857 73.142857v292.571428a73.142857 73.142857 0 0 1-73.142857 73.142857h-57.782857a36.571429 36.571429 0 0 0-25.6 10.971429l-62.171429 62.171429z m-365.714286 438.857143V365.714286a73.142857 73.142857 0 0 0-146.285714 0v292.571428a73.142857 73.142857 0 0 0 146.285714 0z m-292.571428 0V365.714286a73.142857 73.142857 0 0 0-146.285715 0v292.571428a73.142857 73.142857 0 0 0 146.285715 0zM512 658.285714V365.714286a73.142857 73.142857 0 0 0-146.285714 0v292.571428a73.142857 73.142857 0 0 0 146.285714 0z" fill="#29B733" p-id="3961"></path><path d="M1097.142857 365.714286v292.571428a73.142857 73.142857 0 0 1-43.154286 66.56 73.142857 73.142857 0 0 0 6.582858-29.988571v-292.571429a73.142857 73.142857 0 0 0-103.131429-66.56A73.142857 73.142857 0 0 1 1097.142857 365.714286z m-365.714286-73.142857a73.142857 73.142857 0 0 0-66.56 43.154285 73.142857 73.142857 0 0 1 103.131429 66.56v292.571429a73.142857 73.142857 0 0 1-6.582857 29.988571A73.142857 73.142857 0 0 0 804.571429 658.285714V365.714286a73.142857 73.142857 0 0 0-73.142858-73.142857zM438.857143 292.571429a73.142857 73.142857 0 0 0-66.56 43.154285 73.142857 73.142857 0 0 1 103.131428 66.56v292.571429a73.142857 73.142857 0 0 1-6.582857 29.988571A73.142857 73.142857 0 0 0 512 658.285714V365.714286a73.142857 73.142857 0 0 0-73.142857-73.142857z" fill="#2FD333" p-id="3962"></path></svg>