<?xml version="1.0" standalone="no"?><!DOCTYPE svg PUBLIC "-//W3C//DTD SVG 1.1//EN" "http://www.w3.org/Graphics/SVG/1.1/DTD/svg11.dtd"><svg t="1611046465775" class="icon" viewBox="0 0 1024 1024" version="1.1" xmlns="http://www.w3.org/2000/svg" p-id="4244" xmlns:xlink="http://www.w3.org/1999/xlink" width="200" height="200"><defs><style type="text/css"></style></defs><path d="M768.021335 0H255.978665a128.010668 128.010668 0 0 0-128.010668 128.010668v853.40445a42.670223 42.670223 0 0 0 68.699059 33.709476L459.515626 810.734228a85.340445 85.340445 0 0 1 104.968748 0l262.84857 204.390366A42.670223 42.670223 0 0 0 896.032003 981.415118V128.010668a128.010668 128.010668 0 0 0-128.010668-128.010668z" fill="#A63DF9" p-id="4245"></path><path d="M618.675556 362.696891h-85.340445v-85.340445a42.670223 42.670223 0 0 0-85.340445 0v85.340445h-85.340445a42.670223 42.670223 0 0 0 0 85.340445h85.340445v85.340445a42.670223 42.670223 0 0 0 85.340445 0v-85.340445h85.340445a42.670223 42.670223 0 0 0 0-85.340445z" fill="#7328BC" p-id="4246"></path><path d="M640.010668 341.36178h-85.340445V256.021335a42.670223 42.670223 0 0 0-85.340446 0v85.340445H383.989332a42.670223 42.670223 0 0 0 0 85.340445h85.340445v85.340445a42.670223 42.670223 0 0 0 85.340446 0v-85.340445h85.340445a42.670223 42.670223 0 0 0 0-85.340445z" fill="#FF80F3" p-id="4247"></path></svg>