<?xml version="1.0" standalone="no"?><!DOCTYPE svg PUBLIC "-//W3C//DTD SVG 1.1//EN" "http://www.w3.org/Graphics/SVG/1.1/DTD/svg11.dtd"><svg t="1611042584778" class="icon" viewBox="0 0 1024 1024" version="1.1" xmlns="http://www.w3.org/2000/svg" p-id="3242" xmlns:xlink="http://www.w3.org/1999/xlink" width="200" height="200"><defs><style type="text/css"></style></defs><path d="M42.575533 1020.655644l308.098796-200.661359-316.041642-185.193713-24.24658 367.04307a20.902225 20.902225 0 0 0 32.189426 18.812002z" fill="#DAD6CA" p-id="3243"></path><path d="M515.425666 63.459155l99.578199 58.275403a125.41335 125.41335 0 0 1 44.856175 171.565462l-306.844662 524.227802-316.041641-184.984691 306.844662-524.227801a125.41335 125.41335 0 0 1 171.607267-44.856175z" fill="#6D32BA" p-id="3244"></path><path d="M1013.692904 978.851194a41.80445 41.80445 0 0 1-41.80445 41.80445h-627.066748a41.80445 41.80445 0 0 1 0-83.6089h627.066748a41.80445 41.80445 0 0 1 41.80445 41.80445z m-1000.380486-25.08267l-2.926311 46.820984a20.902225 20.902225 0 0 0 32.189426 18.812003l45.56685-29.68116z" fill="#34195E" p-id="3245"></path></svg>