<?xml version="1.0" standalone="no"?><!DOCTYPE svg PUBLIC "-//W3C//DTD SVG 1.1//EN" "http://www.w3.org/Graphics/SVG/1.1/DTD/svg11.dtd"><svg t="1611147592825" class="icon" viewBox="0 0 1025 1024" version="1.1" xmlns="http://www.w3.org/2000/svg" p-id="4096" xmlns:xlink="http://www.w3.org/1999/xlink" width="200.1953125" height="200"><defs><style type="text/css"></style></defs><path d="M348.945098 91.265843l194.749458 194.749458-227.360806 227.360806a137.794428 137.794428 0 0 0 0 194.749458 137.794428 137.794428 0 0 0 194.749458 0l227.360806-227.360806 194.749458 194.749458-227.360806 227.360806a413.383284 413.383284 0 0 1-584.707689 0 413.383284 413.383284 0 0 1 0-584.707689z" fill="#F24922" p-id="4097"></path><path d="M520.728818 309.440354l-194.749458-194.749458 64.763381-64.763382a91.862952 91.862952 0 0 1 129.986077 0l64.763381 64.763382a91.862952 91.862952 0 0 1 0 129.986077z m454.721612 324.735535a91.862952 91.862952 0 0 0 0-129.986077l-64.763381-64.763381a91.862952 91.862952 0 0 0-129.986077 0l-64.763381 64.763381 194.749458 194.749458z" fill="#CC3921" p-id="4098"></path><path d="M543.694556 286.474616l-194.749458-194.749458 64.763381-64.763382a91.862952 91.862952 0 0 1 129.986077 0l64.763381 64.763382a91.862952 91.862952 0 0 1 0 129.986077z m454.721612 324.735535a91.862952 91.862952 0 0 0 0-129.986077l-64.763381-64.763381a91.862952 91.862952 0 0 0-129.986077 0l-64.763381 64.763381 194.749458 194.749458z" fill="#FFA42C" p-id="4099"></path></svg>