<?xml version="1.0" standalone="no"?><!DOCTYPE svg PUBLIC "-//W3C//DTD SVG 1.1//EN" "http://www.w3.org/Graphics/SVG/1.1/DTD/svg11.dtd"><svg t="1614925979826" class="icon" viewBox="0 0 1024 1024" version="1.1" xmlns="http://www.w3.org/2000/svg" p-id="3913" xmlns:xlink="http://www.w3.org/1999/xlink" width="200" height="200"><defs><style type="text/css"></style></defs><path d="M626.712576 202.008576c-40.772608 63.900672-43.79136 145.10592-7.870464 211.894272 35.938304 66.799616 105.116672 108.583936 180.52608 109.038592 12.921856-132.463616-55.43424-259.539968-172.655616-320.932864z" fill="#459CFC" opacity=".4" p-id="3914"></path><path d="M615.713792 413.331456c-36.865024-67.836928-33.770496-150.305792 8.066048-215.20384a332.895232 332.895232 0 0 0-149.584896-37.5296l-4.397056 0.090112c-114.91328 0.207872-221.560832 59.670528-281.92768 157.17888-60.370944 97.507328-65.895424 219.230208-14.598144 321.785856 0.1536 0.37376 0.1536 0.817152 0 1.180672l-30.204928 85.926912c-5.654528 16.044032-2.290688 33.878016 8.798208 46.78656 11.103232 12.91776 28.264448 18.948096 45.02016 15.842304l94.840832-18.27328a1.44384 1.44384 0 0 1 1.1008 0 330.856448 330.856448 0 0 0 177.613824 52.045824c9.885696 0 20.228096-0.448512 30.655488-1.36704 158.329856-14.34112 284.13952-138.779648 299.824128-296.538112v-1.197056c-77.357056-0.4608-148.335616-42.893312-185.206784-110.728192zM335.765504 577.112064l0.273408-0.093184c-10.688512 0.053248-19.47648-8.4224-19.77344-19.088384a18.183168 18.183168 0 0 1 5.069824-13.431808 18.33472 18.33472 0 0 1 13.242368-5.645312h1.189888c10.600448 0 19.17952 8.569856 19.17952 19.130368-0.003072 10.56256-8.580096 19.12832-19.181568 19.12832z m264.3968-0.093184h-66.373632l-9.151488 52.594688c-1.846272 10.390528-11.787264 17.312768-22.203392 15.476736-10.422272-1.856512-17.368064-11.76064-15.515648-22.142976l8.15104-45.657088h-83.588096l-9.15968 52.591616c-1.835008 10.3936-11.773952 17.313792-22.194176 15.474688-10.417152-1.837056-17.366016-11.7504-15.512576-22.141952l30.021632-169.819136H334.848c-10.586112 0-19.178496-8.564736-19.178496-19.124224 0-10.560512 8.592384-19.12832 19.178496-19.12832h66.37056l9.162752-52.590592c1.839104-10.376192 11.776-17.312768 22.192128-15.475712 10.4192 1.837056 17.370112 11.7504 15.51872 22.142976l-8.1408 45.654016h83.588096l9.146368-52.59264c1.89952-10.401792 11.908096-17.313792 22.33856-15.424512h0.462848c10.431488 1.851392 17.390592 11.778048 15.553536 22.17984l-11.16672 60.811264a18.19136 18.19136 0 0 1-2.563072 14.41792l-16.746496 94.503936h59.590656c10.585088 0 19.178496 8.554496 19.178496 19.129344 0.003072 10.56768-8.588288 19.120128-19.171328 19.120128z m0.452608-123.800576h-2.002944c-10.600448 0-19.185664-8.569856-19.185664-19.126272 0-10.561536 8.58624-19.130368 19.185664-19.130368h2.002944c10.597376 0 19.178496 8.567808 19.178496 19.130368 0 10.556416-8.58112 19.126272-19.178496 19.126272z" fill="#2B95FF" opacity=".4" p-id="3915"></path><path d="M695.226368 453.087232c-36.868096-67.836928-33.774592-150.310912 8.059904-215.204864a332.926976 332.926976 0 0 0-149.583872-37.5296l-4.397056 0.089088c-114.915328 0.208896-221.558784 59.6736-281.929728 157.182976-60.36992 97.504256-65.897472 219.229184-14.598144 321.78688 0.154624 0.367616 0.154624 0.812032 0 1.173504l-30.203904 85.933056c-5.655552 16.045056-2.290688 33.874944 8.798208 46.792704 11.106304 12.90752 28.265472 18.940928 45.022208 15.837184l94.843904-18.271232c0.350208-0.14848 0.74752-0.14848 1.096704 0a330.937344 330.937344 0 0 0 177.610752 52.0448c9.892864 0 20.233216-0.453632 30.655488-1.370112 158.336-14.342144 284.146688-138.7776 299.830272-296.54016v-1.18784c-77.357056-0.466944-148.337664-42.902528-185.204736-110.736384zM415.277056 616.868864l0.270336-0.100352c-10.689536 0.055296-19.474432-8.421376-19.77344-19.083264a18.193408 18.193408 0 0 1 5.075968-13.431808 18.320384 18.320384 0 0 1 13.236224-5.644288h1.19296c10.599424 0 19.178496 8.56576 19.178496 19.125248-0.004096 10.565632-8.58112 19.134464-19.180544 19.134464z m264.390656-0.09728h-66.374656l-9.147392 52.595712c-1.852416 10.389504-11.788288 17.308672-22.208512 15.476736-10.4192-1.851392-17.363968-11.76576-15.514624-22.140928l8.152064-45.658112h-83.581952l-9.162752 52.588544c-1.83808 10.394624-11.778048 17.317888-22.191104 15.476736-10.420224-1.836032-17.370112-11.748352-15.519744-22.142976l30.019584-169.82016h-59.78624c-10.586112 0-19.178496-8.56576-19.178496-19.126272s8.593408-19.126272 19.178496-19.126272h66.373632l9.161728-52.59264c1.83808-10.380288 11.778048-17.316864 22.193152-15.475712 10.418176 1.837056 17.36704 11.753472 15.516672 22.144l-8.139776 45.654016h83.581952l9.147392-52.590592c1.902592-10.406912 11.907072-17.31584 22.336512-15.424512h0.46592c10.42944 1.84832 17.389568 11.773952 15.552512 22.177792l-11.167744 60.807168a18.179072 18.179072 0 0 1-2.563072 14.41792l-16.746496 94.50496h59.590656c10.587136 0 19.181568 8.554496 19.181568 19.126272 0.011264 10.578944-8.580096 19.12832-19.16928 19.12832z m0.45568-123.800576h-2.003968c-10.599424 0-19.178496-8.564736-19.178496-19.127296 0-10.560512 8.579072-19.129344 19.178496-19.129344h2.003968c10.5984 0 19.178496 8.56576 19.178496 19.129344-0.001024 10.56256-8.58112 19.127296-19.178496 19.127296z" fill="#1082FF" p-id="3916"></path><path d="M512.525312 497.4848l-15.137792 85.914624h83.11808l15.050752-85.914624zM878.841856 568.753152c13.213696-134.97344-56.682496-264.430592-176.535552-326.989824-41.700352 65.10592-44.777472 147.835904-8.039424 215.890944 36.739072 68.057088 107.469824 110.633984 184.574976 111.09888z" fill="#1082FF" p-id="3917"></path><path d="M706.226176 241.763328c-40.77568 63.901696-43.794432 145.10592-7.870464 211.894272 35.938304 66.801664 105.114624 108.587008 180.524032 109.034496 12.91776-132.460544-55.43424-259.538944-172.653568-320.928768z" fill="#459CFC" p-id="3918"></path></svg>