<?xml version="1.0" standalone="no"?><!DOCTYPE svg PUBLIC "-//W3C//DTD SVG 1.1//EN" "http://www.w3.org/Graphics/SVG/1.1/DTD/svg11.dtd"><svg t="1611042875024" class="icon" viewBox="0 0 1444 1024" version="1.1" xmlns="http://www.w3.org/2000/svg" p-id="3386" xmlns:xlink="http://www.w3.org/1999/xlink" width="282.03125" height="200"><defs><style type="text/css"></style></defs><path d="M721.294222 512m-512 0a512 512 0 1 0 1024 0 512 512 0 1 0-1024 0Z" fill="#0B70DD" p-id="3387"></path><path d="M625.720889 816.924444a1806.848 1806.848 0 0 0 413.582222 54.044445h48.355556a512.455111 512.455111 0 0 0 88.177777-122.311111 1360.611556 1360.611556 0 0 1-523.377777-40.391111 1529.059556 1529.059556 0 0 1-436.337778-170.666667l-5.688889-3.982222a512 512 0 0 0 26.737778 145.635555 1793.137778 1793.137778 0 0 0 388.551111 137.671111z" fill="#0D67B7" p-id="3388"></path><path d="M1258.325333 421.546667l-38.115555-22.755556a512 512 0 0 1 13.084444 113.777778v27.875555c84.195556 59.733333 101.831111 103.537778 97.848889 119.466667-13.653333 56.888889-254.862222 113.777778-648.533333 18.204445a1529.514667 1529.514667 0 0 1-436.337778-170.666667c-113.777778-71.111111-135.395556-124.017778-131.413333-141.653333s56.888889-48.924444 141.084444-61.44a512 512 0 0 1 75.662222-120.604445c-170.666667 6.826667-302.648889 53.475556-327.68 154.737778-14.791111 59.733333 5.12 154.737778 181.475556 265.102222a1643.292444 1643.292444 0 0 0 469.902222 186.026667 1806.108444 1806.108444 0 0 0 413.582222 54.044444c194.56 0 345.884444-46.08 372.053334-155.875555 13.653333-62.008889-6.257778-155.875556-182.613334-266.24z" fill="#3395FF" p-id="3389"></path><path d="M224.085333 308.337778l30.151111-5.12a512 512 0 0 1 75.662223-120.604445 512 512 0 0 0-105.813334 125.724445z" fill="#2A85D8" p-id="3390"></path></svg>