<?xml version="1.0" standalone="no"?><!DOCTYPE svg PUBLIC "-//W3C//DTD SVG 1.1//EN" "http://www.w3.org/Graphics/SVG/1.1/DTD/svg11.dtd"><svg t="1611133071930" class="icon" viewBox="0 0 1024 1024" version="1.1" xmlns="http://www.w3.org/2000/svg" p-id="1240" xmlns:xlink="http://www.w3.org/1999/xlink" width="200" height="200"><defs><style type="text/css"></style></defs><path d="M990.967742 462.451613a165.16129 165.16129 0 0 1-165.16129 165.16129H231.225806A198.193548 198.193548 0 1 1 231.225806 231.225806c0.759742 0 1.486452 0.132129 2.279226 0.132129C249.723871 100.979613 360.712258 0 495.483871 0c112.970323 0 209.127226 71.052387 246.916129 170.776774 10.768516-3.303226 21.999484-5.615484 33.858065-5.615484A115.612903 115.612903 0 0 1 891.870968 280.774194c0 10.008774-1.651613 19.522065-4.062968 28.804129A164.996129 164.996129 0 0 1 990.967742 462.451613z" fill="#7896C7" p-id="1241"></path><path d="M181.677419 693.677419S297.290323 844.535742 297.290323 908.387097a115.612903 115.612903 0 1 1-231.225807 0C66.064516 844.535742 181.677419 693.677419 181.677419 693.677419zM512 693.677419s115.612903 150.858323 115.612903 214.709678a115.612903 115.612903 0 1 1-231.225806 0c0-63.851355 115.612903-214.709677 115.612903-214.709678zM842.322581 693.677419s115.612903 150.858323 115.612903 214.709678a115.612903 115.612903 0 1 1-231.225807 0c0-63.851355 115.612903-214.709677 115.612904-214.709678z" fill="#0F74FF" p-id="1242"></path></svg>