<?xml version="1.0" standalone="no"?><!DOCTYPE svg PUBLIC "-//W3C//DTD SVG 1.1//EN" "http://www.w3.org/Graphics/SVG/1.1/DTD/svg11.dtd"><svg t="1611133167130" class="icon" viewBox="0 0 1024 1024" version="1.1" xmlns="http://www.w3.org/2000/svg" p-id="1518" xmlns:xlink="http://www.w3.org/1999/xlink" width="200" height="200"><defs><style type="text/css"></style></defs><path d="M961.939394 434.424242a155.151515 155.151515 0 0 1-155.151515 155.151516H248.242424c-10.705455 0-21.162667-1.086061-31.278545-3.165091C129.117091 571.485091 62.060606 495.522909 62.060606 403.393939a186.181818 186.181818 0 0 1 186.181818-186.181818c0.713697 0 1.396364 0.124121 2.141091 0.124121C265.619394 94.859636 369.881212 0 496.484848 0c106.123636 0 196.452848 66.746182 231.951516 160.426667 10.115879-3.10303 20.666182-5.275152 31.80606-5.275152A108.606061 108.606061 0 0 1 868.848485 263.757576c0 9.402182-1.551515 18.338909-3.816727 27.058424A154.996364 154.996364 0 0 1 961.939394 434.424242z" fill="#7896C7" p-id="1519"></path><path d="M651.108848 782.863515H545.512727l12.722425-162.536727-154.437819 240.60897h105.565091l-12.691394 162.536727 154.437818-240.60897z" fill="#FFB31F" p-id="1520"></path><path d="M651.108848 782.863515H545.512727l12.722425-162.536727-154.437819 240.60897h105.565091l-12.691394 162.536727 154.437818-240.60897z" fill="#FFB31F" p-id="1521"></path><path d="M201.69697 651.636364S310.30303 793.351758 310.30303 853.333333a108.606061 108.606061 0 1 1-217.212121 0C93.090909 793.351758 201.69697 651.636364 201.69697 651.636364zM853.333333 651.636364s108.606061 141.715394 108.606061 201.696969a108.606061 108.606061 0 1 1-217.212121 0c0-59.981576 108.606061-201.69697 108.60606-201.696969z" fill="#0F74FF" p-id="1522"></path></svg>