<?xml version="1.0" standalone="no"?><!DOCTYPE svg PUBLIC "-//W3C//DTD SVG 1.1//EN" "http://www.w3.org/Graphics/SVG/1.1/DTD/svg11.dtd"><svg t="1611321437385" class="icon" viewBox="0 0 1213 1024" version="1.1" xmlns="http://www.w3.org/2000/svg" p-id="827" xmlns:xlink="http://www.w3.org/1999/xlink" width="236.9140625" height="200"><defs><style type="text/css"></style></defs><path d="M1156.740741 796.444444h-606.814815a56.888889 56.888889 0 0 1 0-113.777777h606.814815a56.888889 56.888889 0 0 1 0 113.777777z m0-227.555555h-379.25926a56.888889 56.888889 0 0 1 0-113.777778h379.25926a56.888889 56.888889 0 0 1 0 113.777778z m0-227.555556h-151.703704a56.888889 56.888889 0 0 1 0-113.777777h151.703704a56.888889 56.888889 0 0 1 0 113.777777z m0-227.555555h-455.111111a56.888889 56.888889 0 0 1 0-113.777778h455.111111a56.888889 56.888889 0 0 1 0 113.777778z m-644.740741 0h-455.111111a56.888889 56.888889 0 0 1 0-113.777778h455.111111a56.888889 56.888889 0 0 1 0 113.777778z m-455.111111 113.777778h758.518518a56.888889 56.888889 0 0 1 0 113.777777h-758.518518a56.888889 56.888889 0 0 1 0-113.777777z m0 227.555555h530.962963a56.888889 56.888889 0 0 1 0 113.777778h-530.962963a56.888889 56.888889 0 0 1 0-113.777778z m0 227.555556h303.407407a56.888889 56.888889 0 0 1 0 113.777777h-303.407407a56.888889 56.888889 0 0 1 0-113.777777z m0 227.555555h75.851852a56.888889 56.888889 0 0 1 0 113.777778h-75.851852a56.888889 56.888889 0 0 1 0-113.777778z m265.481481 0h834.370371a56.888889 56.888889 0 0 1 0 113.777778h-834.370371a56.888889 56.888889 0 0 1 0-113.777778z" fill="#84A1CB" p-id="828"></path></svg>