<?xml version="1.0" standalone="no"?><!DOCTYPE svg PUBLIC "-//W3C//DTD SVG 1.1//EN" "http://www.w3.org/Graphics/SVG/1.1/DTD/svg11.dtd"><svg t="1611133205830" class="icon" viewBox="0 0 1024 1024" version="1.1" xmlns="http://www.w3.org/2000/svg" p-id="1660" xmlns:xlink="http://www.w3.org/1999/xlink" width="200" height="200"><defs><style type="text/css"></style></defs><path d="M959.891795 730.763814l-138.581249-79.996072 127.069013-39.687734a35.064221 35.064221 0 0 0 22.683138-43.876822 34.660827 34.660827 0 0 0-43.504458-22.90035l-188.540007 58.92651-156.982208-90.577399 153.848149-88.777644 191.674066 59.733298a35.064221 35.064221 0 0 0 43.7527-22.86932 34.90907 34.90907 0 0 0-22.838289-43.65961l-0.093091-0.03103-130.203072-40.742763 140.536157-81.082133c16.539141-9.495267 22.341805-30.688951 12.939629-47.383244l-0.248243-0.434424a34.9401 34.9401 0 0 0-47.662516-12.784477l-138.581249 80.058133 29.106406-129.830709a35.250403 35.250403 0 0 0-27.27562-41.580581 34.9401 34.9401 0 0 0-40.959975 26.18956l-43.163125 192.760126-156.733966 90.484308V275.673666l147.39385-135.726463a34.9401 34.9401 0 0 0 2.358302-49.08991l-0.310303-0.341333a34.9401 34.9401 0 0 0-49.369182-2.047999l-100.072667 92.190975V35.095873A34.9401 34.9401 0 0 0 511.255946 0.093712h-0.093091a34.97113 34.97113 0 0 0-34.97113 34.9401V179.045361l-98.21085-90.515339A35.002161 35.002161 0 0 0 330.318359 139.698961l0.341333 0.310302 145.625124 134.050828v177.555286l-154.344634-89.056915-43.163125-192.667035a34.90907 34.90907 0 0 0-42.232217-25.910287 35.219373 35.219373 0 0 0-26.003378 41.270278l29.106406 129.768648L100.383953 234.682661a35.033191 35.033191 0 0 0-47.755608 12.815507 34.90907 34.90907 0 0 0 12.443144 47.507365l0.341333 0.217212 141.218824 81.516557-130.203073 40.649672c-18.276837 5.771633-28.454771 25.444833-22.683138 43.876822 5.740603 18.431989 25.227621 28.671983 43.504459 22.869319l191.674065-59.919478 153.258574 88.43631-156.392632 90.142975-188.540007-58.895479a34.598767 34.598767 0 0 0-43.473428 22.838289 34.97113 34.97113 0 0 0 22.652107 43.814761l127.069014 39.687734-139.263915 80.430496a34.90907 34.90907 0 0 0-12.784478 47.724577 34.815979 34.815979 0 0 0 47.755608 12.784478l141.218823-81.516557-29.882163 133.088889a35.002161 35.002161 0 0 0 34.102282 42.60458c16.104718 0 30.502769-11.108842 34.133313-27.33768l43.938882-195.801094 153.413725-88.622491v181.154799l-145.625124 134.019797a34.9401 34.9401 0 0 0-1.954908 49.338152 34.753918 34.753918 0 0 0 49.369183 2.047999l98.210849-90.484309v139.232886a34.97113 34.97113 0 0 0 69.942261 0.09309V848.058289l100.041636 92.190974a34.97113 34.97113 0 0 0 47.600456-51.230999l-0.248242-0.248243-147.39385-135.726463v-180.472133l155.927178 90.049885 44.031973 195.925215c4.282179 18.928473 22.96241 30.782042 41.735732 26.468832 18.742292-4.158058 30.56483-22.838289 26.437803-41.704702l-0.031031-0.124121-29.882163-132.995798 140.536157 81.082132a34.847009 34.847009 0 0 0 47.755607-12.784477c9.619388-16.570172 4.095998-37.856947-12.319023-47.538395l-0.465454-0.279273 0.093091 0.093091z" fill="#1367DB" p-id="1661"></path></svg>