<?xml version="1.0" standalone="no"?><!DOCTYPE svg PUBLIC "-//W3C//DTD SVG 1.1//EN" "http://www.w3.org/Graphics/SVG/1.1/DTD/svg11.dtd"><svg t="1611321546957" class="icon" viewBox="0 0 2322 1024" version="1.1" xmlns="http://www.w3.org/2000/svg" p-id="972" xmlns:xlink="http://www.w3.org/1999/xlink" width="453.515625" height="200"><defs><style type="text/css"></style></defs><path d="M1352.42712259 817.11305346a290.78169855 290.78169855 0 0 1-204.99661898-84.56364969l-189.60660436-154.83657276-200.96590064 165.50372519a48.61290241 48.61290241 0 0 1-8.26500809 5.49643379 291.02598476 291.02598476 0 0 1-187.16374522 68.40006348C397.83909384 817.11305346 264.78468423 680.23149817 264.78468423 511.99991288 264.78468423 343.68689983 397.83909384 206.80534395 561.4292453 206.80534395a290.70027022 290.70027022 0 0 1 204.99661898 84.64507865l191.15374876 156.09871618 191.43874976-157.64586061A290.74098438 290.74098438 0 0 1 1352.42712259 206.80534395C1516.01727465 206.80534395 1649.07168426 343.68689983 1649.07168426 511.99991288c0 168.23158471-133.05440902 305.1131406-296.64456167 305.11314059z m-124.30082971-146.93799338c84.93007903 70.68006593 209.43448019 57.1221961 278.11954404-30.29145684 68.64434969-87.332224 55.45290857-215.46019998-29.47716985-286.09955113a193.27089395 193.27089395 0 0 0-240.74379543-6.18857766c-1.91357314 2.19857352-199.01161336 164.93372443-199.01161336 164.93372503s188.71088964 154.71442964 191.1130346 157.64586059zM561.4292453 308.55043831c-109.23653023 0-197.74946933 91.07794193-197.74946934 203.44947457 0 112.33081848 88.51293908 203.40876038 197.74946934 203.40876038a194.32946594 194.32946594 0 0 0 130.93726444-50.97433319c3.50143173-3.17571718 186.0237443-151.66085498 186.02374428-151.66085499s-190.38017656-156.09871619-192.66017901-159.03014774a193.23017918 193.23017918 0 0 0-124.30082971-45.19289903z" fill="#84A1CB" p-id="973"></path></svg>