<?xml version="1.0" standalone="no"?><!DOCTYPE svg PUBLIC "-//W3C//DTD SVG 1.1//EN" "http://www.w3.org/Graphics/SVG/1.1/DTD/svg11.dtd"><svg t="1611133241458" class="icon" viewBox="0 0 1441 1024" version="1.1" xmlns="http://www.w3.org/2000/svg" p-id="1795" xmlns:xlink="http://www.w3.org/1999/xlink" width="281.4453125" height="200"><defs><style type="text/css"></style></defs><path d="M1441.185185 758.518519a265.481481 265.481481 0 0 1-265.481481 265.481481H303.407407c-9.178074 0-18.204444-0.455111-27.154963-1.365333C121.438815 1008.867556 0 879.009185 0 720.592593c0-141.50163 97.014519-260.020148 228.048593-293.584593C227.972741 423.708444 227.555556 420.484741 227.555556 417.185185 227.555556 186.785185 414.340741 0 644.740741 0c181.096296 0 334.810074 115.636148 392.495407 276.897185A188.378074 188.378074 0 0 1 1099.851852 265.481481a189.62963 189.62963 0 0 1 189.629629 189.62963c0 20.707556-4.133926 40.239407-10.277925 58.861037A265.557333 265.557333 0 0 1 1441.185185 758.518519z" fill="#8B9EBA" p-id="1796"></path></svg>