<?xml version="1.0" standalone="no"?><!DOCTYPE svg PUBLIC "-//W3C//DTD SVG 1.1//EN" "http://www.w3.org/Graphics/SVG/1.1/DTD/svg11.dtd"><svg t="1611149838782" class="icon" viewBox="0 0 1024 1024" version="1.1" xmlns="http://www.w3.org/2000/svg" p-id="7776" xmlns:xlink="http://www.w3.org/1999/xlink" width="200" height="200"><defs><style type="text/css"></style></defs><path d="M509.44 514.048m-260.608 0a260.608 260.608 0 1 0 521.216 0 260.608 260.608 0 1 0-521.216 0Z" fill="#EDA915" p-id="7777"></path><path d="M509.44 179.712c-11.776 0-21.504-9.728-21.504-21.504V105.984c0-11.776 9.728-21.504 21.504-21.504 11.776 0 21.504 9.728 21.504 21.504v52.224c0 11.776-9.728 21.504-21.504 21.504zM313.344 243.2c-9.216 6.656-23.04 4.608-29.696-4.608l-30.72-42.496c-6.656-9.216-4.608-23.04 4.608-29.696 9.216-6.656 23.04-4.608 29.696 4.608l30.72 42.496c6.656 9.728 4.608 23.04-4.608 29.696zM191.488 410.624c-3.584 11.264-15.872 17.408-26.624 13.824l-49.664-16.384c-11.264-3.584-17.408-15.872-13.824-26.624 3.584-11.264 15.872-17.408 26.624-13.824l49.664 16.384c11.264 3.584 17.408 15.36 13.824 26.624zM191.488 616.96c3.584 11.264-2.56 23.04-13.824 26.624l-49.664 16.384c-11.264 3.584-23.04-2.56-26.624-13.824-3.584-11.264 2.56-23.04 13.824-26.624l49.664-16.384c11.264-3.072 23.04 3.072 26.624 13.824zM312.832 784.384c9.216 6.656 11.776 20.48 4.608 29.696l-30.72 42.496c-6.656 9.216-20.48 11.776-29.696 4.608-9.216-6.656-11.776-20.48-4.608-29.696l30.72-42.496c7.168-9.216 20.48-11.264 29.696-4.608zM509.44 848.384c11.776 0 21.504 9.728 21.504 21.504v52.224c0 11.776-9.728 21.504-21.504 21.504-11.776 0-21.504-9.728-21.504-21.504v-52.224c0.512-12.288 10.24-21.504 21.504-21.504zM706.048 784.384c9.216-6.656 23.04-4.608 29.696 4.608l30.72 42.496c6.656 9.216 4.608 23.04-4.608 29.696-9.216 6.656-23.04 4.608-29.696-4.608l-30.72-42.496c-6.656-9.216-4.608-23.04 4.608-29.696zM827.904 617.472c3.584-11.264 15.872-17.408 26.624-13.824l49.664 16.384c11.264 3.584 17.408 15.872 13.824 26.624-3.584 11.264-15.872 17.408-26.624 13.824l-49.664-16.384c-11.776-3.584-17.92-15.872-13.824-26.624zM827.904 410.624c-3.584-11.264 2.56-23.04 13.824-26.624l49.664-16.384c11.264-3.584 23.04 2.56 26.624 13.824 3.584 11.264-2.56 23.04-13.824 26.624l-49.664 16.384c-11.264 3.584-23.04-2.56-26.624-13.824zM706.048 243.2c-9.216-6.656-11.776-20.48-4.608-29.696l30.72-42.496c6.656-9.216 20.48-11.776 29.696-4.608 9.216 6.656 11.776 20.48 4.608 29.696l-30.72 42.496c-6.656 9.728-19.968 11.776-29.696 4.608z" fill="#EDA915" p-id="7778"></path></svg>