<?xml version="1.0" standalone="no"?><!DOCTYPE svg PUBLIC "-//W3C//DTD SVG 1.1//EN" "http://www.w3.org/Graphics/SVG/1.1/DTD/svg11.dtd"><svg t="1611133097347" class="icon" viewBox="0 0 1024 1024" version="1.1" xmlns="http://www.w3.org/2000/svg" p-id="1378" xmlns:xlink="http://www.w3.org/1999/xlink" width="200" height="200"><defs><style type="text/css"></style></defs><path d="M976 448a160 160 0 0 1-160 160H240c-11.04 0-21.824-1.12-32.256-3.264C117.152 589.344 48 511.008 48 416a192 192 0 0 1 192-192c0.736 0 1.44 0.128 2.176 0.128C257.92 97.824 365.44 0 496 0c109.472 0 202.592 68.832 239.2 165.44 10.432-3.2 21.312-5.44 32.8-5.44A112 112 0 0 1 880 272c0 9.696-1.6 18.912-3.936 27.904A159.84 159.84 0 0 1 976 448z" fill="#7896C7" p-id="1379"></path><path d="M540.992 643.808s51.424 117.12 40 159.808a80 80 0 1 1-154.56-41.408c11.456-42.688 114.56-118.4 114.56-118.4zM188.992 643.808s51.424 117.12 40 159.808a80 80 0 1 1-154.56-41.408c11.456-42.688 114.56-118.4 114.56-118.4zM892.992 643.808s51.424 117.12 40 159.808a80 80 0 1 1-154.56-41.408c11.456-42.688 114.56-118.4 114.56-118.4zM348.992 803.808s51.424 117.12 40 159.808a80 80 0 1 1-154.56-41.408c11.456-42.688 114.56-118.4 114.56-118.4zM700.992 803.808s51.424 117.12 40 159.808a80 80 0 1 1-154.56-41.408c11.456-42.688 114.56-118.4 114.56-118.4z" fill="#0F74FF" p-id="1380"></path></svg>