<svg xmlns="http://www.w3.org/2000/svg" xmlns:xlink="http://www.w3.org/1999/xlink" version="1.1" id="Layer_1" x="0px" y="0px" viewBox="0 0 1080 1080" style="enable-background:new 0 0 1080 1080;" xml:space="preserve">
<style type="text/css">
	.st0{fill:#F2F2F2;}
	.st1{opacity:0.4;}
	.st2{fill:#2A94F4;}
	.st3{fill:#FFBE55;}
	.st4{opacity:0.1;fill:#2A94F4;}
	.st5{opacity:0.4;fill:#2A94F4;}
	.st6{fill:none;stroke:#4D4D4D;stroke-miterlimit:10;}
	.st7{fill:#FFE3CA;}
	.st8{fill:#0B4870;}
	.st9{fill:#FCD2B1;}
</style>
<path class="st0" d="M976.38,720.79c0,14.26-11.56,25.83-25.83,25.83H198.57c-14.26,0-25.83-11.56-25.83-25.83l0,0  c0-14.26,11.56-25.83,25.83-25.83h751.99C964.81,694.97,976.38,706.53,976.38,720.79L976.38,720.79z"/>
<g>
	<g>
		<g class="st1">
			<path class="st2" d="M198.23,589.48c5.64,1.44,9.96,6.08,12.71,11.55c2.74,5.46,4.1,11.75,5.47,17.96c0.87,4,1.86,8.2,4.52,10.91     c3.22,3.26,8.27,3.66,12.93,2.73c4.67-0.92,9.2-2.99,13.84-4.17c14.45-3.67,29.79,2.49,36.27,15.81     c4.92,10.11,3.98,23.91-1.96,34.66c-4.76,11.34-15,20.65-25.98,23.05c-14.48,3.19-28.82-5.03-34.9-18.65     c-1.95-4.37-3.14-9.22-5.31-13.45c-2.16-4.23-5.61-7.93-10.17-8.43c-3.77-0.42-7.68,1.41-11.36,3.21     c-5.73,2.79-11.51,5.62-17.49,6.86c-5.99,1.24-12.32,0.72-16.94-2.82c-3.66-2.8-5.96-7.21-8.16-11.5     c-3.48-6.75-6.96-13.52-10.44-20.28c-1.42-2.78-2.92-5.62-5.32-7.36c-6.37-4.64-15.53,0.21-23.62,1.82     c-13.65,2.69-27.25-5.53-31.59-19.12c-2.91-9.09-1.51-20.03,3.13-29.26c4.34-9.35,12.06-17.24,21-20.59     c13.34-5.01,28.23,0.56,34.59,12.94c3.77,7.34,5.64,17.53,13.22,19.66c2.86,0.81,6.02,0.2,9.08-0.4     c7.46-1.47,14.92-2.92,22.38-4.39C188.88,589.27,193.77,588.34,198.23,589.48z"/>
		</g>
		<path class="st0" d="M202.88,617.43c-0.37-0.65-1.49-0.4-1.12,0.25c5.43,9.58,9.84,19.41,13.14,29.4c0.1,0.32,0.43,0.48,0.72,0.51    c-0.04,0.01-0.08,0.03-0.13,0.04c-8.79-4.28-17.57-8.56-26.36-12.84c-0.01-0.01-0.02-0.01-0.03-0.01    c-4.06-8.22-8.12-16.44-12.19-24.65c-0.33-0.66-1.45-0.41-1.12,0.25c3.89,7.87,7.78,15.74,11.67,23.6c-10.26-5-20.53-10-30.79-15    c-2.24-5.75-4.48-11.5-6.72-17.25c-0.26-0.68-1.38-0.42-1.12,0.25c2.11,5.42,4.23,10.85,6.34,16.27l-6.03-2.94    c-12.94-6.3-25.87-12.61-38.81-18.91c-0.74-0.36-1.18,0.55-0.44,0.91l46.11,22.47c-6.33,2.19-12.97,3.76-19.93,4.69    c-0.75,0.1-0.24,1.13,0.5,1.03c7.17-0.95,14.02-2.58,20.52-4.88c0.12-0.04,0.19-0.11,0.24-0.19l30.02,14.63    c-8.93,2.3-17.86,4.6-26.79,6.89c-0.71,0.18-0.21,1.22,0.5,1.03c9.28-2.39,18.57-4.78,27.85-7.17l25.14,12.25    c-8.66,2.59-17.32,5.18-25.98,7.77c-0.69,0.21-0.2,1.24,0.5,1.03c8.99-2.69,17.99-5.38,26.98-8.07    c10.05,4.9,20.11,9.8,30.16,14.69c1.85,0.9,3.69,1.8,5.54,2.7c-8.62,1.95-17.24,3.91-25.87,5.86c-0.72,0.16-0.22,1.2,0.5,1.03    l26.97-6.11c10.56,5.14,21.11,10.28,31.67,15.43c0.74,0.36,1.18-0.55,0.44-0.91c-10.13-4.93-20.25-9.87-30.38-14.8    c0-0.07-0.01-0.16-0.05-0.25c-4.35-9.02-8.7-18.05-13.06-27.07c-0.32-0.67-1.44-0.42-1.12,0.25c4.21,8.72,8.42,17.45,12.62,26.17    c0,0-0.01,0-0.01,0c-0.05,0.01-0.1,0.02-0.15,0.03l-35.99-17.54c0.23-0.36-0.19-1.01-0.76-0.84c-0.01,0-0.02,0.01-0.03,0.01    c0.07-0.08,0.1-0.2,0.05-0.36C212.77,637.01,208.36,627.1,202.88,617.43z"/>
	</g>
	<g>
		<g>
			<path class="st2" d="M302.38,621.6c2.01,13.97-5.31,24.66-14.14,32.28l-11.49,11.01c-7.99,8.51-18.98,15.36-32.85,12.76     c-9.95-1.86-20.31-8.64-27.82-17.46c-7.53-8.81-12.28-19.47-13.94-29.53c-0.6-3.6-0.95-7.44-3.43-10.73     c-1.6-2.13-3.87-3.7-6.13-4.95c-7.58-4.19-16.44-6.07-22.2-12.96c-4.53-5.44-5.5-12.29-5.15-18.09     c0.36-5.79,1.74-11.29,0.78-17.44c-0.4-2.6-1.25-5.34-2.88-7.82c-7.1-10.87-23.04-10.31-31.71-20.23     c-4.08-4.66-5.51-10.62-5.68-15.83c-0.17-5.23,0.7-10.12,0.23-15.42c-0.52-5.87-2.82-12.09-6.39-17.79     c5.55,3.8,11.68,6.35,17.51,7.13c5.27,0.69,10.2,0.03,15.41,0.43c5.2,0.39,11.09,2.07,15.58,6.35     c9.54,9.08,8.3,24.99,18.85,32.55c2.42,1.73,5.11,2.69,7.69,3.21c6.11,1.22,11.66,0.07,17.47-0.05     c5.81-0.1,12.61,1.15,17.85,5.92c6.65,6.04,8.15,14.98,12.01,22.72c1.15,2.31,2.62,4.65,4.68,6.33     c3.19,2.62,7.01,3.13,10.58,3.88c9.98,2.09,20.43,7.29,28.91,15.19C294.61,600.94,300.94,611.58,302.38,621.6z"/>
		</g>
		<path class="st0" d="M267.66,589.72c-4.48,16.64-7.91,33.52-10.31,50.58c-8.05-8.96-16.1-17.92-24.15-26.88    c0.02-0.04,0.04-0.08,0.05-0.13c1.98-13.16,3.96-26.31,5.94-39.47c0.12-0.8-1.1-1.16-1.22-0.35c-1.95,12.92-3.89,25.84-5.84,38.76    c-6.53-7.27-13.05-14.53-19.58-21.8c0.26-0.05,0.51-0.24,0.54-0.57c1.3-12.01,2.37-24.05,3.2-36.1c0.06-0.82-1.21-0.84-1.27-0.03    c-0.83,11.99-1.89,23.96-3.18,35.91c-7.03-7.83-14.06-15.66-21.09-23.49c0-0.03,0.01-0.04,0.01-0.07    c-0.37-7.94-0.75-15.87-1.12-23.81c-0.04-0.81-1.31-0.85-1.27-0.03c0.35,7.48,0.7,14.95,1.05,22.43l-18.09-20.14    c0.03-0.07,0.05-0.14,0.06-0.22c0.39-6.1,0.77-12.21,1.16-18.31c0.05-0.82-1.22-0.84-1.27-0.03c-0.37,5.76-0.73,11.52-1.1,17.29    c-1.18-1.32-2.36-2.63-3.55-3.95c-2.11-2.35-4.22-4.7-6.33-7.05c0.17-0.13,0.29-0.34,0.23-0.62c-1.99-9.74-3.98-19.48-5.97-29.22    c-0.16-0.8-1.4-0.5-1.24,0.3c1.92,9.4,3.84,18.79,5.76,28.19c-9.37-10.43-18.74-20.86-28.1-31.29c-0.55-0.61-1.46,0.27-0.92,0.88    c9.12,10.16,18.24,20.31,27.36,30.47c-7.68-1.32-15.36-2.64-23.04-3.95c-0.8-0.14-1.16,1.08-0.35,1.22    c8.2,1.41,16.4,2.82,24.6,4.22c0.04,0.01,0.08,0,0.12,0l9.78,10.89c-4.69,0.01-9.39,0.02-14.08,0.04c-0.82,0-0.85,1.27-0.03,1.27    c5.08-0.01,10.16-0.03,15.25-0.04l18.12,20.18c-6.2-0.88-12.26-2.34-18.17-4.43c-0.77-0.27-1.12,0.95-0.35,1.22    c6.45,2.27,13.07,3.81,19.85,4.68l21.78,24.25c-12.25,0.21-24.51,0.42-36.76,0.64c-0.82,0.01-0.85,1.29-0.03,1.27    c12.61-0.22,25.22-0.44,37.83-0.65c0.03,0,0.04-0.01,0.07-0.01l19.4,21.6c-9.89,1.19-19.78,2.37-29.68,3.56    c-0.81,0.1-0.51,1.33,0.3,1.24c10.14-1.21,20.27-2.43,30.41-3.64l22.4,24.94c0.33,0.37,0.67,0.74,1,1.11    c-15.64-0.46-31.29-0.93-46.93-1.39c-0.82-0.02-0.85,1.25-0.03,1.27c16.04,0.47,32.09,0.95,48.13,1.42    c11.16,12.43,22.32,24.85,33.48,37.28c0.55,0.61,1.46-0.27,0.92-0.88c-11.04-12.3-22.09-24.59-33.13-36.89    c0.11-0.1,0.2-0.23,0.22-0.41c2.39-17.17,5.85-34.16,10.35-50.89C269.1,589.28,267.87,588.93,267.66,589.72z"/>
	</g>
	<g>
		<g class="st1">
			<path class="st2" d="M302.66,636.96c-5.79,12.87-17.7,17.97-29.24,19.67l-15.6,3.13c-11.3,2.9-24.26,2.79-34.57-6.84     c-7.4-6.9-12.51-18.18-14.13-29.65c-1.63-11.48,0.07-23.02,4.06-32.41c1.42-3.36,3.19-6.79,2.86-10.9     c-0.21-2.65-1.28-5.2-2.52-7.46c-4.15-7.6-10.63-13.94-11.79-22.84c-0.91-7.02,1.94-13.32,5.35-18.03     c3.41-4.7,7.52-8.6,10.01-14.3c1.05-2.41,1.8-5.18,1.76-8.14c-0.17-12.98-13.93-21.05-15.93-34.07     c-0.95-6.12,1.04-11.92,3.69-16.41c2.65-4.5,6.02-8.17,8.46-12.89c2.7-5.23,4.1-11.72,4.15-18.44     c2.65,6.19,6.45,11.62,10.96,15.41c4.08,3.41,8.6,5.49,12.78,8.62c4.19,3.12,8.25,7.7,9.75,13.71     c3.19,12.78-6.39,25.54-1.54,37.58c1.11,2.75,2.87,5.01,4.77,6.83c4.5,4.3,9.81,6.31,14.77,9.33     c4.96,3.03,10.03,7.74,11.89,14.57c2.38,8.66-1.15,17.01-2.04,25.62c-0.27,2.57-0.28,5.33,0.56,7.86     c1.29,3.92,4.24,6.4,6.85,8.95c7.3,7.11,13.33,17.11,16.26,28.32C307.17,615.36,306.81,627.74,302.66,636.96z"/>
		</g>
		<path class="st0" d="M290.44,591.44c-12.7,11.64-24.65,24.06-35.82,37.17c-1.99-11.88-3.98-23.76-5.97-35.64    c0.04-0.03,0.08-0.05,0.11-0.09c8.72-10.04,17.45-20.09,26.17-30.13c0.53-0.61-0.31-1.57-0.85-0.95    c-8.57,9.86-17.14,19.73-25.71,29.59c-1.61-9.63-3.23-19.27-4.84-28.9c0.25,0.1,0.55,0.07,0.77-0.19    c7.54-9.44,14.89-19.03,22.06-28.76c0.49-0.66-0.57-1.36-1.06-0.7c-7.13,9.68-14.44,19.21-21.94,28.61    c-1.74-10.38-3.48-20.76-5.22-31.14c0.01-0.02,0.03-0.03,0.05-0.05c3.94-6.9,7.88-13.8,11.82-20.7c0.4-0.71-0.65-1.42-1.06-0.7    c-3.71,6.5-7.42,13-11.14,19.5l-4.47-26.7c0.06-0.04,0.12-0.09,0.17-0.15c3.6-4.95,7.2-9.89,10.8-14.84    c0.48-0.66-0.58-1.37-1.06-0.7c-3.4,4.67-6.8,9.34-10.19,14c-0.29-1.74-0.58-3.49-0.88-5.23c-0.52-3.12-1.04-6.23-1.57-9.35    c0.22-0.02,0.43-0.13,0.53-0.4c3.54-9.29,7.09-18.58,10.63-27.87c0.29-0.77-0.91-1.18-1.2-0.41c-3.42,8.96-6.84,17.92-10.25,26.88    c-2.32-13.83-4.63-27.65-6.95-41.48c-0.14-0.81-1.38-0.56-1.25,0.25c2.26,13.46,4.51,26.93,6.77,40.39    c-5.78-5.23-11.55-10.46-17.33-15.69c-0.6-0.54-1.56,0.3-0.95,0.85c6.17,5.58,12.34,11.17,18.5,16.75    c0.03,0.03,0.07,0.04,0.1,0.06l2.42,14.43c-3.97-2.51-7.94-5.01-11.91-7.52c-0.69-0.44-1.4,0.62-0.7,1.06    c4.3,2.71,8.59,5.43,12.89,8.14l4.48,26.75c-4.76-4.07-9.09-8.55-12.97-13.48c-0.51-0.64-1.45,0.2-0.95,0.85    c4.22,5.37,8.99,10.23,14.25,14.59l5.39,32.15c-10.46-6.39-20.92-12.78-31.37-19.17c-0.7-0.43-1.4,0.63-0.7,1.06    c10.76,6.58,21.53,13.15,32.29,19.73c0.02,0.01,0.04,0.01,0.07,0.02l4.8,28.64c-8.99-4.3-17.97-8.6-26.96-12.91    c-0.74-0.35-1.14,0.85-0.41,1.2c9.21,4.41,18.42,8.82,27.63,13.23l5.54,33.06c0.08,0.49,0.16,0.98,0.25,1.47    c-12.96-8.78-25.92-17.55-38.87-26.33c-0.68-0.46-1.38,0.6-0.7,1.06c13.29,9,26.58,18,39.87,27c2.76,16.47,5.52,32.95,8.28,49.42    c0.14,0.81,1.38,0.56,1.25-0.25c-2.73-16.3-5.46-32.6-8.19-48.9c0.15-0.02,0.29-0.09,0.41-0.22    c11.22-13.21,23.25-25.7,36.02-37.41C291.89,591.83,291.05,590.88,290.44,591.44z"/>
	</g>
</g>
<g id="XMLID_2399_">
	<g id="XMLID_2400_">
		<g id="XMLID_2401_">
			<g id="XMLID_2404_" class="st1">
				<g>
					<path class="st2" d="M466.83,390.17v-5.39c0-8.74-7.28-15.83-16.25-15.83H281.14c-8.97,0-16.25,7.09-16.25,15.83v285.5h403.87       V406c0-8.74-7.28-15.83-16.25-15.83H466.83z"/>
				</g>
			</g>
			<g id="XMLID_2403_">
				<rect x="282.82" y="412.98" class="st0" width="371.79" height="260.2"/>
			</g>
			<g id="XMLID_2402_">
				<g>
					<path class="st3" d="M461.07,445.52l-6,16.2H281.14c-8.97,0-16.25,7.09-16.25,15.83v201.58c0,8.74,7.28,15.83,16.25,15.83       h371.37c8.97,0,16.25-7.09,16.25-15.83V450.89c0-8.74-7.28-15.83-16.25-15.83H476.36       C469.51,435.06,463.39,439.24,461.07,445.52z"/>
				</g>
			</g>
		</g>
	</g>
</g>
<path class="st0" d="M316.38,814.8c0,7.53-6.11,13.64-13.64,13.64H177.29c-7.53,0-13.64-6.11-13.64-13.64l0,0  c0-7.53,6.11-13.64,13.64-13.64h125.45C310.27,801.16,316.38,807.27,316.38,814.8L316.38,814.8z"/>
<path class="st0" d="M680.01,801.62c0,7.28-5.9,13.18-13.18,13.18h-83.36c-7.28,0-13.18-5.9-13.18-13.18l0,0  c0-7.28,5.9-13.18,13.18-13.18h83.36C674.11,788.43,680.01,794.34,680.01,801.62L680.01,801.62z"/>
<path class="st0" d="M930.15,816.16c0,6.78-5.49,12.27-12.27,12.27H776.96c-6.78,0-12.27-5.49-12.27-12.27l0,0  c0-6.78,5.49-12.27,12.27-12.27h140.91C924.65,803.89,930.15,809.38,930.15,816.16L930.15,816.16z"/>
<path class="st0" d="M481.83,840.25c0,6.53-5.29,11.82-11.82,11.82h-52.73c-6.53,0-11.82-5.29-11.82-11.82l0,0  c0-6.53,5.29-11.82,11.82-11.82h52.73C476.54,828.43,481.83,833.73,481.83,840.25L481.83,840.25z"/>
<path class="st4" d="M293.96,335.81h183c0,0,9.07-18.67-33.13-16.67c0,0,21.55-42.67-14.66-40.67c0,0-1.54-40-48.21-38  s-33.53,44.67-33.53,44.67s-49.13-2-29.8,36C317.63,321.14,258.96,329.14,293.96,335.81z"/>
<path class="st4" d="M815.18,443.77h130.26c0,0,6.46-13.29-23.58-11.86c0,0,15.34-30.37-10.44-28.95c0,0-1.1-28.47-34.31-27.05  c-33.22,1.42-23.87,31.79-23.87,31.79s-34.97-1.42-21.21,25.62C832.03,433.33,790.27,439.02,815.18,443.77z"/>
<path class="st2" d="M902.02,683.22c0,4.41-3.57,7.98-7.98,7.98h-30.77c-4.41,0-7.98-3.57-7.98-7.98v-71.79  c0-4.41,3.57-7.98,7.98-7.98h30.77c4.41,0,7.98,3.57,7.98,7.98V683.22z"/>
<path class="st5" d="M882.35,520.83c0,0-25.19,51.2,11.92,59.91s38.18-29.9,34.38-45.81c-3.8-15.92,55.08-58.7,6.52-96.55  C886.6,400.52,848.75,501.3,882.35,520.83z"/>
<path class="st5" d="M835.45,548.62c0,0-1.19,33.69,20.93,29.41c22.11-4.28,13.34-25.35,7.44-33.01s15.48-44.97-19.85-53.62  S812.62,546.22,835.45,548.62z"/>
<line class="st6" x1="839.22" y1="516.86" x2="866.57" y2="603.46"/>
<polyline class="st6" points="855.18,534.49 849.38,549.03 836.19,541.76 "/>
<line class="st6" x1="912.01" y1="467.86" x2="888.55" y2="603.46"/>
<polyline class="st6" points="925.77,488.37 906.34,500.65 893.87,483.81 "/>
<polyline class="st6" points="920.46,516.81 901.02,529.08 888.55,512.25 "/>
<g>
	<path class="st3" d="M689.31,390.22c0.02-0.03,0.04-0.05,0.06-0.08c2.6-3.8,5-7.77,7.22-11.84c2.2-3.97,4.44-8.39,6.01-12.14   l0.08-0.19c0.13-0.3,0.27-0.6,0.42-0.89c2.92-5.54,9.78-7.67,15.32-4.75c5.54,2.92,7.67,9.78,4.75,15.32   c-2.74,5.2-5.39,9.45-8.41,13.93c-2.05,2.95-4.23,5.82-6.47,8.64C706.62,396.43,693.31,391.66,689.31,390.22z"/>
	<path class="st7" d="M700.42,469c9.87,11.32,66.83,16.05,66.83,16.05c4.2-4.88-1.94-27.06-3.42-49.57   c-1.6-24.34-2.53-51.21-2.95-65.72c-0.17-5.99-5.08-10.74-11.07-10.74h-36.15c-5.57,0-10.21,4.25-10.67,9.8   c-0.95,11.49-2.6,31.47-4.23,51.05C697.11,439.75,691.89,459.22,700.42,469z"/>
	<path class="st7" d="M733.28,658.24l-0.08,22.4l1.95,10.91c0.34,1.89-1.06,3.64-2.98,3.7c-9.17,0.28-32.66,0.9-33.29-0.12   c-2.95-4.78,10.4-6.61,20.16-10.4c9.77-3.78,3.03-40.86,3.03-40.86L733.28,658.24z"/>
	<path class="st3" d="M719.04,684.74c0.05-0.02,0.1-0.06,0.15-0.08c2.33,0.87,4.95,1.38,7.9,1.38c2.53,0,4.82-0.37,6.9-1.01   l1.16,6.53c0.34,1.89-1.06,3.64-2.98,3.7c-9.17,0.28-32.66,0.9-33.29-0.12C695.93,690.36,709.27,688.52,719.04,684.74z"/>
	<path class="st8" d="M735.01,571.29c1.2,8.57,1.39,63.49-0.53,91.39h-11.01c-5.91-27.06-12.24-79.52-13.41-87.9   c-0.02-0.11-0.02-0.21-0.04-0.32c-6.58-29.12-9.85-85.81-9.59-97.3c0.35-15.57,10.45-27.97,22.55-27.7   c12.1,0.27,21.62,13.12,21.27,28.69C744.02,487.94,734.45,567.23,735.01,571.29z"/>
	<path class="st7" d="M759.71,658.24l-0.08,22.4l1.95,10.91c0.34,1.89-1.06,3.64-2.98,3.7c-9.17,0.28-32.66,0.9-33.29-0.12   c-2.95-4.78,10.4-6.61,20.16-10.4c9.77-3.78,3.03-40.86,3.03-40.86L759.71,658.24z"/>
	<path class="st3" d="M745.47,684.74c0.05-0.02,0.1-0.06,0.15-0.08c2.33,0.87,4.95,1.38,7.9,1.38c2.53,0,4.82-0.37,6.9-1.01   l1.16,6.53c0.34,1.89-1.06,3.64-2.98,3.7c-9.17,0.28-32.66,0.9-33.29-0.12C722.36,690.36,735.71,688.52,745.47,684.74z"/>
	<path class="st8" d="M761.45,571.29c1.2,8.57,1.39,63.49-0.53,91.39H749.9c-5.91-27.06-12.24-79.52-13.41-87.9   c-0.01-0.11-0.02-0.21-0.03-0.32c-6.58-29.12-12.46-86.18-12.2-97.66c0.35-15.57,13.06-27.61,25.16-27.34   c12.1,0.27,19,12.76,18.65,28.33C767.84,487.58,760.88,567.23,761.45,571.29z"/>
	<path class="st3" d="M713.32,359.02h5.87c2.05,4.73,6.37,8.39,13.09,8.39c6.73,0,11.05-3.66,13.09-8.39h5.36   c5.48,0,9.97,4.33,10.12,9.81c0.41,14.27,1.34,41.78,2.98,66.65c1.48,22.51,7.63,43.43,3.42,49.57c0,0-56.96-4.73-66.83-16.05   c-8.53-9.79-3.31-29.25-1.65-49.12c1.64-19.77,3.31-39.95,4.25-51.39C703.46,363.13,707.94,359.02,713.32,359.02z"/>
	<path class="st8" d="M733.83,345.87l0.68,0.15c5.16,1.15,10.27-2.11,11.42-7.27l3.07-13.81l-10.02-2.23L733.83,345.87z"/>
	<g>
		<polygon class="st7" points="724.88,359.02 743.78,359.02 738.33,340.18 725.45,341.77   "/>
	</g>
	<path class="st9" d="M725.45,341.77l12.88-1.59l2.54,8.78c-2.88,3.25-7.16,8.3-11.85,8.3c-1.49,0-2.84-0.42-4.06-1.19   L725.45,341.77z"/>
	<path class="st7" d="M723.5,351.79L723.5,351.79c8.49,1.89,16.9-3.46,18.78-11.95l3.81-17.12l-26.35-5.86   c0,0-2.97,13.36-3.06,22.81C716.61,346.76,719.17,350.83,723.5,351.79z"/>
	<path class="st7" d="M738.53,335.61c-0.74,3.34,0.25,6.4,2.23,6.84c1.97,0.44,5.12-3.46,5.86-6.8c0.74-3.34-1.2-4.86-3.17-5.3   S739.28,332.27,738.53,335.61z"/>
	<path class="st8" d="M716.34,323.49c-0.14-2.27,0.23-4.54,1.08-6.65l0,0c2.12-5.23,7.97-7.48,13.3-5.62   c0.54,0.19,1.12,0.35,1.73,0.49l8.9,1.97c5.35,1.19,8.72,6.48,7.53,11.83l-0.46,2.07l-5.27,3.06l-2.15,3.74l-0.35-0.08   c-1.7-0.38-2.79-2.01-2.53-3.7c0.44-2.79-0.95-5.52-3.71-6.14l-7.89-1.76c-4.81-1.07-7.88,0.96-8.68,4.55l-0.43,3.1L716.34,323.49z   "/>
	<path class="st8" d="M742.96,317.25c0.6,4.88-16.95,11.07-21.57,11.64c-4.63,0.57-8.87-2.92-9.47-7.81   c-0.6-4.88,2.66-9.3,7.29-9.88S742.35,312.37,742.96,317.25z"/>
	<path class="st7" d="M761.59,373.92c-2.9,9.4-8.9,22.54-17.23,34.97c-25.78,37.16-61.84,52.53-101.86,34.5   c-1.64-0.74-2.37-2.66-1.63-4.3c0.63-1.4,2.13-2.14,3.57-1.86l0.17,0.03c23.59,4.52,42.79,3.07,61.71-13.93   c24.69-22.59,34.84-59.85,33.67-56.22c1.92-5.95,8.31-9.22,14.26-7.29C760.14,361.72,763.4,368.01,761.59,373.92z"/>
	<g>
		<path class="st3" d="M730.15,389.89c4.95-8.95,9.68-24.83,9.68-24.83s2.56-6.63,12.77-5.99c8.16,0.51,9.64,9.43,9.64,9.43    c0.23,1.23,2.67,15.94-9.44,33.9C752.79,402.39,729.32,391.39,730.15,389.89z"/>
	</g>
	<path class="st7" d="M647.1,437.84c-3.32-1.93-7.29-11.37-8.62-10.91c-0.95,0.33,0.03,3.72,0.66,5.6c0.07,0.22,0.01,0.46-0.16,0.62   c-0.17,0.16-0.41,0.2-0.63,0.12c-3.5-1.43-13.32-5.34-13.89-4.45c-0.57,0.91,5.14,4.39,7.07,5.53c0.06,0.03,0.08,0.11,0.06,0.17   c-0.02,0.06-0.09,0.1-0.15,0.09c-2.48-0.34-10.55-1.32-10.21,0.18c0.32,1.43,7.65,3.17,10.49,3.79c0.07,0.02,0.12,0.08,0.11,0.15   c-0.01,0.07-0.06,0.13-0.14,0.13c-2.89,0.13-10.3,0.6-10.03,1.88c0.28,1.3,7.78,1.83,10.46,1.97c0.07,0,0.13,0.06,0.13,0.13   c0.01,0.07-0.04,0.13-0.11,0.15c-2.38,0.62-8.49,2.31-7.25,2.91c1.53,0.74,17.56,0.45,20.78-0.67   C648.92,444.13,647.1,437.84,647.1,437.84z"/>
	<path class="st7" d="M689.31,390.22c0,0-0.97,13.56-20.98,12.17v10.59c0,0,19.65,7.21,31.66-7.89l1.34-10.34L689.31,390.22z"/>
</g>
</svg>